# xmcd CD database file
#
# Track frame offsets:
#	150
#	14520
#	29145
#	51678
#	72858
#	82446
#	105606
#	119628
#	141309
#	161811
#	184616
#	207464
#	222698
#	238376
#	249431
#	274873
#
# Disc length: 4063 seconds
#
# Revision: 2
# Processed by: cddbd v1.5.2PL0 Copyright (c) Steve Scherf et al.
# Submitted via: CDex 1.51
#
DISCID=120fdd10
DTITLE=Little Joe Washington - The Blues Reality
DYEAR=2005
DGENRE=Blues
TTITLE0=Wake Up This Morning Blues
TTITLE1=Find Me A Good Woman
TTITLE2=Lil' Joe's Stomp #1
TTITLE3=Since I Met You (A Tribute To T-Bone Walker)
TTITLE4=220
TTITLE5=The Ghetto
TTITLE6=No Woman
TTITLE7=Ain't Nobody's Business
TTITLE8=Bright Lights, Big City (by Texas Kansas Kings featuruing Clarence Pierce)
TTITLE9=C Jam Blues
TTITLE10=Need You Loving
TTITLE11=The Texas Shuttle (with Special Guest Mitsuyoshi Azuma)
TTITLE12=Me And Lightnin' (A Tribute To Lightnin' Hopkins)
TTITLE13=No. 19
TTITLE14=Please Love Me
TTITLE15=Here To See You Go
EXTD=YEAR: 2005
EXTT0=
EXTT1=
EXTT2=
EXTT3=
EXTT4=
EXTT5=
EXTT6=
EXTT7=
EXTT8=
EXTT9=
EXTT10=
EXTT11=
EXTT12=
EXTT13=
EXTT14=
EXTT15=
PLAYORDER=
